<svg width="21" height="27" viewBox="0 0 21 27" fill="none" xmlns="http://www.w3.org/2000/svg">
<path fill-rule="evenodd" clip-rule="evenodd" d="M2.226 6.95518H18.774C19.0876 6.95518 19.3883 6.83061 19.61 6.60889C19.8317 6.38716 19.9563 6.08644 19.9563 5.77288C19.9563 5.45931 19.8317 5.15859 19.61 4.93686C19.3883 4.71514 19.0876 4.59058 18.774 4.59058H2.226C1.91244 4.59058 1.61171 4.71514 1.38999 4.93686C1.16826 5.15859 1.0437 5.45931 1.0437 5.77288C1.0437 6.08644 1.16826 6.38716 1.38999 6.60889C1.61171 6.83061 1.91244 6.95518 2.226 6.95518ZM18.774 9.31768H2.226C1.91244 9.31768 1.61171 9.44224 1.38999 9.66396C1.16826 9.88569 1.0437 10.1864 1.0437 10.5C1.0437 10.8135 1.16826 11.1143 1.38999 11.336C1.61171 11.5577 1.91244 11.6823 2.226 11.6823H18.774C19.0876 11.6823 19.3883 11.5577 19.61 11.336C19.8317 11.1143 19.9563 10.8135 19.9563 10.5C19.9563 10.1864 19.8317 9.88569 19.61 9.66396C19.3883 9.44224 19.0876 9.31768 18.774 9.31768ZM18.774 14.0448H2.226C1.91244 14.0448 1.61171 14.1693 1.38999 14.3911C1.16826 14.6128 1.0437 14.9135 1.0437 15.2271C1.0437 15.5406 1.16826 15.8414 1.38999 16.0631C1.61171 16.2848 1.91244 16.4094 2.226 16.4094H18.774C19.0876 16.4094 19.3883 16.2848 19.61 16.0631C19.8317 15.8414 19.9563 15.5406 19.9563 15.2271C19.9563 14.9135 19.8317 14.6128 19.61 14.3911C19.3883 14.1693 19.0876 14.0448 18.774 14.0448Z" fill="black"/>
</svg>
